<svg width="48" height="48" viewBox="0 0 48 48" fill="none" xmlns="http://www.w3.org/2000/svg">
<path d="M42.9686 0H2.51572C1.15723 0 0 1.15723 0 2.56604V7.14465C0 8.55346 1.15723 9.71069 2.51572 9.71069H42.9686C44.3774 9.71069 45.4843 8.55346 45.5346 7.14465V2.61635C45.5346 1.15723 44.3774 0 42.9686 0ZM42.9686 25.4088H2.51572C1.86164 25.4088 1.20755 25.6604 0.754717 26.1635C0.251572 26.6667 0 27.2704 0 27.9748V32.5535C0 33.9623 1.15723 35.1195 2.51572 35.1195H42.9686C44.3774 35.1195 45.4843 34.0126 45.5346 32.5535V27.9748C45.4843 26.5157 44.3774 25.4088 42.9686 25.4088ZM25.3082 38.0881H2.51572C1.86164 38.0881 1.20755 38.3396 0.754717 38.8428C0.301887 39.3459 0 39.9497 0 40.6541V45.2327C0 46.6415 1.15723 47.7987 2.51572 47.7987H25.2579C26.6667 47.7987 27.7736 46.6415 27.7736 45.283V40.7044C27.8239 39.195 26.717 38.0881 25.3082 38.0881ZM45.5346 12.6792H2.51572C1.86164 12.6792 1.20755 12.9308 0.754717 13.434C0.301887 13.9371 0 14.5409 0 15.2453V19.8239C0 21.2327 1.15723 22.3899 2.51572 22.3899H45.4843C46.8931 22.3899 48 21.2327 48 19.8239V15.2453C48.0503 13.8868 46.8931 12.7296 45.5346 12.6792Z" fill="#2DBDEF"/>
</svg>
