<svg width="10" height="12" viewBox="0 0 10 12" fill="none" xmlns="http://www.w3.org/2000/svg">
<path d="M9.09083 2.77892H0.910186C0.54915 2.77892 0.292539 3.04568 0.339725 3.37148L1.40649 10.7412C1.4537 11.0669 1.78758 11.3337 2.14861 11.3337H7.85268C8.2138 11.3337 8.54759 11.0669 8.59499 10.7412L9.66154 3.37148C9.70875 3.04578 9.4519 2.77892 9.09089 2.77892H9.09083ZM3.31975 9.65984C3.31975 10.2382 2.33527 10.2382 2.33527 9.65984V4.61203C2.33527 4.03375 3.31975 4.03375 3.31975 4.61203V9.65984ZM5.50755 9.65984C5.50755 10.2382 4.52307 10.2382 4.52307 9.65984V4.61203C4.52307 4.03375 5.50755 4.03375 5.50755 4.61203V9.65984ZM7.69514 9.65984C7.69514 10.2382 6.71077 10.2382 6.71077 9.65984V4.61203C6.71077 4.03375 7.69514 4.03375 7.69514 4.61203V9.65984ZM9.66687 1.39333V2.0526C9.66687 2.21178 9.52536 2.34078 9.35046 2.34078L0.650169 2.34068C0.475611 2.34068 0.333984 2.21179 0.333984 2.0525V1.39323C0.333984 1.23405 0.475603 1.10525 0.650169 1.10525H3.51841V0.954967C3.51841 0.795788 3.65992 0.666992 3.83459 0.666992H6.38632C6.5612 0.666992 6.70302 0.795878 6.70302 0.954967V1.10525H9.35077C9.52554 1.10525 9.66695 1.23434 9.66695 1.39333L9.66687 1.39333Z" fill="#B32D2E"/>
</svg>
