<svg width="20" height="20" viewBox="0 0 20 20" fill="none" xmlns="http://www.w3.org/2000/svg">
<path d="M13.0803 11.6518C13.1861 11.9395 13.0597 12.2508 12.798 12.347L12.1662 12.5792C11.9045 12.6754 11.6066 12.5201 11.5008 12.2323C11.3951 11.9446 11.5215 11.6333 11.7831 11.5371L12.4149 11.3049C12.6766 11.2087 12.9745 11.364 13.0803 11.6518Z" fill="black"/>
<path d="M10.2708 13.2759C10.5325 13.1797 10.6589 12.8684 10.5531 12.5807C10.4474 12.2929 10.1495 12.1376 9.88779 12.2338L9.256 12.466C8.99431 12.5622 8.86791 12.8735 8.97369 13.1612C9.07946 13.449 9.37735 13.6043 9.63904 13.5081L10.2708 13.2759Z" fill="black"/>
<path fill-rule="evenodd" clip-rule="evenodd" d="M16.5883 15.3641C16.9699 15.2238 17.1687 14.8093 17.0323 14.4382L12.4838 2.06353C12.3474 1.69243 11.9274 1.50532 11.5458 1.64559L9.18467 2.51347C9.48851 3.38755 9.01683 4.35481 8.12008 4.68443C7.22334 5.01404 6.2375 4.58251 5.90293 3.71973L3.54178 4.58761C3.16016 4.72788 2.96136 5.14243 3.09777 5.51352L7.64628 17.8882C7.78268 18.2593 8.20262 18.4464 8.58425 18.3061L10.9454 17.4382C10.9418 17.429 10.9383 17.4197 10.9349 17.4103C10.9328 17.4046 10.9307 17.3989 10.9287 17.3932C10.9274 17.3896 10.9261 17.3859 10.9248 17.3822C10.621 16.5082 11.0927 15.5409 11.9894 15.2113C12.8862 14.8817 13.872 15.3132 14.2066 16.176C14.2101 16.1852 14.2137 16.1945 14.2171 16.2039C14.2205 16.2132 14.2239 16.2226 14.2271 16.232L16.5883 15.3641ZM11.7188 2.47183L10.1331 3.0547C10.1279 4.09476 9.46661 5.07931 8.40822 5.46834C7.34984 5.85737 6.20835 5.53545 5.53083 4.74632L3.94509 5.32919L6.88824 13.3363L7.47562 13.1204C7.73731 13.0242 8.0352 13.1795 8.14098 13.4673C8.24675 13.7551 8.12035 14.0663 7.85866 14.1625L7.27128 14.3784L8.41128 17.4799L9.9769 16.9044C9.95489 15.8412 10.6214 14.8243 11.7013 14.4274C12.7811 14.0304 13.9476 14.3737 14.6194 15.198L16.185 14.6225L15.045 11.5211L14.4576 11.737C14.1959 11.8331 13.898 11.6778 13.7923 11.3901C13.6865 11.1023 13.8129 10.7911 14.0746 10.6949L14.662 10.479L11.7188 2.47183Z" fill="black"/>
</svg>
