<svg width="20" height="20" viewBox="0 0 20 20" fill="none" xmlns="http://www.w3.org/2000/svg">
<path fill-rule="evenodd" clip-rule="evenodd" d="M11.8735 2.62546L3.26935 5.7871C3.09655 5.85059 3.00794 6.04215 3.07144 6.21495L7.38277 17.9479C7.44627 18.1207 7.63782 18.2093 7.81062 18.1458L16.4148 14.9842C16.5876 14.9207 16.6762 14.7291 16.6127 14.5563L12.3014 2.82337C12.2379 2.65057 12.0463 2.56196 11.8735 2.62546ZM3.09689 5.31778C2.6649 5.47652 2.44338 5.9554 2.60212 6.3874L6.91345 18.1204C7.07219 18.5524 7.55108 18.7739 7.98307 18.6151L16.5872 15.4535C17.0192 15.2948 17.2408 14.8159 17.082 14.3839L12.7707 2.65091C12.6119 2.21892 12.1331 1.9974 11.7011 2.15614L3.09689 5.31778Z" fill="black"/>
<path d="M10.9589 11.009L9.39453 11.5838C8.31412 11.9808 7.74298 13.1295 8.11823 14.1507C8.19294 14.3541 8.43006 14.4557 8.64517 14.3767L13.3383 12.6522C13.5535 12.5731 13.6683 12.3421 13.5936 12.1388C13.2184 11.1176 12.0393 10.612 10.9589 11.009Z" fill="black"/>
<path d="M7.8713 8.43924C7.67982 8.82435 7.6532 9.26103 7.79731 9.6532C7.94141 10.0454 8.24444 10.3609 8.63971 10.5304C9.03499 10.6999 9.49015 10.7095 9.90505 10.557C10.32 10.4046 10.6606 10.1026 10.8521 9.71747C11.0436 9.33236 11.0702 8.89569 10.9261 8.50351C10.782 8.11134 10.479 7.79579 10.0837 7.62629C9.68841 7.45678 9.23325 7.44721 8.81835 7.59966C8.40345 7.75212 8.06278 8.05413 7.8713 8.43924Z" fill="black"/>
<path d="M5.93826 3.38589L8.28485 2.52363L8.57228 3.30583L6.22568 4.16809L5.93826 3.38589Z" fill="black"/>
<path fill-rule="evenodd" clip-rule="evenodd" d="M5.67086 3.2622L8.40855 2.25622L8.69597 3.03842L11.6292 1.96059C12.1692 1.76216 12.7678 2.03906 12.9662 2.57906L17.2776 14.312C17.476 14.852 17.1991 15.4506 16.6591 15.649L8.05493 18.8107C7.51493 19.0091 6.91633 18.7322 6.7179 18.1922L2.40657 6.45926C2.20815 5.91926 2.48504 5.32065 3.02504 5.12223L5.95828 4.0444L5.67086 3.2622ZM6.22568 4.16809L3.09689 5.31778C2.6649 5.47652 2.44338 5.9554 2.60212 6.3874L6.91345 18.1204C7.07219 18.5524 7.55108 18.7739 7.98307 18.6151L16.5872 15.4535C17.0192 15.2948 17.2408 14.8159 17.082 14.3839L12.7707 2.65091C12.6119 2.21892 12.1331 1.9974 11.7011 2.15614L8.57228 3.30583L8.28485 2.52363L5.93826 3.38589L6.22568 4.16809ZM11.9454 2.82101L3.3412 5.98265C3.2764 6.00646 3.24318 6.07829 3.26699 6.14309L7.57832 17.8761C7.60213 17.9409 7.67396 17.9741 7.73876 17.9503L16.3429 14.7886C16.4077 14.7648 16.441 14.693 16.4172 14.6282L12.1058 2.89522C12.082 2.83042 12.0102 2.79719 11.9454 2.82101ZM9.32268 11.3883L10.8871 10.8134C12.065 10.3806 13.3705 10.9275 13.7892 12.0669C13.9073 12.3885 13.7228 12.7329 13.4102 12.8477L8.71702 14.5722C8.40445 14.6871 8.04084 14.5441 7.92268 14.2226C7.50398 13.0831 8.14479 11.8211 9.32268 11.3883ZM7.60176 9.72506C7.43725 9.27735 7.46861 8.78119 7.68475 8.34649C7.90065 7.91227 8.28317 7.57437 8.7465 7.40411C9.20982 7.23386 9.72011 7.2437 10.1658 7.43482C10.612 7.62615 10.9571 7.98395 11.1216 8.43166C11.2862 8.87936 11.2548 9.37552 11.0387 9.81023C10.8228 10.2444 10.4402 10.5823 9.97691 10.7526C9.51359 10.9228 9.00329 10.913 8.55761 10.7219C8.11142 10.5306 7.76627 10.1728 7.60176 9.72506ZM3.26935 5.7871L11.8735 2.62546C12.0463 2.56196 12.2379 2.65057 12.3014 2.82337L16.6127 14.5563C16.6762 14.7291 16.5876 14.9207 16.4148 14.9842L7.81062 18.1458C7.63782 18.2093 7.44627 18.1207 7.38277 17.9479L3.07144 6.21495C3.00794 6.04215 3.09655 5.85059 3.26935 5.7871ZM10.9589 11.009C12.0393 10.612 13.2184 11.1176 13.5936 12.1388C13.6683 12.3421 13.5535 12.5731 13.3383 12.6522L8.64517 14.3767C8.43006 14.4557 8.19294 14.3541 8.11823 14.1507C7.74298 13.1295 8.31412 11.9808 9.39453 11.5838L10.9589 11.009ZM7.8713 8.43924C7.67982 8.82435 7.6532 9.26103 7.79731 9.6532C7.94141 10.0454 8.24444 10.3609 8.63971 10.5304C9.03499 10.6999 9.49015 10.7095 9.90505 10.557C10.32 10.4046 10.6606 10.1026 10.8521 9.71747C11.0436 9.33236 11.0702 8.89569 10.9261 8.50351C10.782 8.11134 10.479 7.79579 10.0837 7.62629C9.68841 7.45678 9.23325 7.44721 8.81835 7.59966C8.40345 7.75212 8.06278 8.05413 7.8713 8.43924Z" fill="black"/>
</svg>
