<svg width="20" height="20" viewBox="0 0 20 20" fill="none" xmlns="http://www.w3.org/2000/svg">
<path d="M3.12408 6.00564C2.58826 6.11246 2.24316 6.63019 2.34607 7.16677C2.68416 8.92966 3.40401 12.6717 3.80938 14.6947C3.91567 15.2251 4.42531 15.5693 4.95695 15.4692C7.83326 14.9274 14.191 13.6857 16.6219 13.2101C17.1613 13.1046 17.5106 12.5848 17.4081 12.0448C17.0717 10.2721 16.3574 6.52038 15.959 4.51603C15.8527 3.98154 15.3397 3.63707 14.8045 3.73982C12.3822 4.20484 6.00802 5.43067 3.12408 6.00564ZM3.84842 6.64108L14.3819 4.60548L10.4455 9.46412C10.1363 9.84575 9.59577 9.94635 9.17 9.70149L3.84842 6.64108ZM3.17463 7.30617L9.90893 12.0833C10.1705 12.1998 10.3351 12.1385 10.4706 11.9748L15.2549 4.97164L16.6927 12.4113L4.61236 14.7459L3.17463 7.30617Z" fill="black"/>
</svg>
