<svg width="108" height="93" viewBox="0 0 108 93" fill="none" xmlns="http://www.w3.org/2000/svg">
<path d="M18.767 0.597971L18.8915 0.69873L30.0867 10.8832C30.642 11.3884 30.6778 12.2415 30.1667 12.7902C28.8307 14.2243 28.0762 16.0993 28.0762 18.0943C28.0762 22.4145 31.6021 25.9136 35.947 25.9136C38.1914 25.9136 40.281 24.9777 41.7631 23.3624C42.2742 22.8054 43.2469 23.9995 43.8068 24.5089C48.7769 29.4099 52.9406 33.5156 52.9406 33.5156C52.9406 33.5156 66.0003 22.3111 68.1635 19.1048C68.6022 18.4544 68.9271 17.5307 69.5471 17.9832L69.6672 18.0816L80.003 27.5619C80.5841 28.0949 80.5858 29.0017 80.0068 29.5368L79.7301 29.8003C77.8933 31.6405 76.8428 34.1274 76.8428 36.7847C76.8428 42.2372 81.2499 46.6499 86.6753 46.6499C89.7496 46.6499 92.5867 45.2252 94.4405 42.8308C94.8988 42.2389 95.7469 42.131 96.3397 42.5611L96.4626 42.6615L106.776 52.1219C107.263 52.5684 107.354 53.295 106.993 53.8453C98.6999 66.4773 77.0569 79.1359 65.2341 80.2843C54.8651 81.2915 47.7338 79.9079 39.7312 74.7379L39.2192 74.4028C33.771 70.7905 23.7813 62.6565 9.20304 49.9692L7.34003 48.345C2.95983 46.1066 0.476358 41.5461 0.681662 34.3344C0.979921 23.8152 6.77385 11.8662 16.9468 0.785023C17.4215 0.267962 18.2087 0.197603 18.767 0.597971Z" fill="#F0F0F1"/>
<path fill-rule="evenodd" clip-rule="evenodd" d="M78.8069 75.607C86.654 72.4131 101.403 61.8974 107.226 53.2919C107.226 53.2919 103.307 49.8526 95.4702 42.974C93.4306 45.5299 90.2411 47.1759 86.654 47.1759C80.4955 47.1759 75.5019 42.3249 75.5019 36.3421C75.5019 33.3501 78.7684 28.6803 78.7684 28.6803L68.793 19.232C66.1171 23.0789 60.5965 29.3929 53.5466 34.4822C50.3007 36.8254 46.7307 38.909 42.9648 40.3726" fill="#C3C4C7"/>
<path fill-rule="evenodd" clip-rule="evenodd" d="M19.2193 0.750805L19.0741 0.633312C18.4231 0.166453 17.5052 0.248497 16.9516 0.851429C6.77683 11.9346 0.977537 23.8946 0.678516 34.4407C0.471763 41.7032 2.98567 46.3229 7.40938 48.5977C21.9337 61.2834 32.1203 69.6652 38.0181 73.7757L38.623 74.1926L39.1953 74.5772C47.4298 80.0368 54.673 81.5081 65.2793 80.4778C77.1336 79.3263 98.7712 66.6709 107.077 54.0199C107.498 53.3783 107.391 52.531 106.824 52.0103L96.5432 42.5802L96.3999 42.4631C95.7087 41.9615 94.7197 42.0874 94.1853 42.7776C92.3807 45.1084 89.6204 46.4945 86.6293 46.4945C81.3501 46.4945 77.0601 42.1992 77.0601 36.8896C77.0601 34.3013 78.083 31.8798 79.8715 30.0879L80.1407 29.8317C80.8159 29.2077 80.8138 28.1503 80.1362 27.5288L69.8334 18.0788L69.6934 17.964C68.9705 17.4364 67.9269 17.6013 67.4152 18.3597C64.1668 23.1746 59.337 27.727 52.202 33.2451L51.5114 33.7528C37.6772 43.8592 25.0351 48.7715 12.6479 46.9524C6.89594 46.1066 3.64634 42.4715 3.87245 34.5289L3.8952 33.9443C4.34904 24.756 9.37618 14.2219 18.1765 4.23746L18.2485 4.15486L27.1269 12.232L27.0195 12.3895C25.8803 14.11 25.2541 16.1376 25.2541 18.2589C25.2541 24.175 30.0911 28.9753 36.063 28.9753L36.4823 28.9673C38.8499 28.8774 41.077 28.0276 42.869 26.5852L42.887 26.5687L47.515 30.7797C48.1635 31.3696 49.1742 31.3295 49.7725 30.69C50.3707 30.0505 50.33 29.0538 49.6815 28.4638L43.9565 23.2558C43.3035 22.6618 42.2846 22.7072 41.6886 23.3568C40.2547 24.9195 38.234 25.8245 36.063 25.8245C31.8604 25.8245 28.4493 22.4393 28.4493 18.2589C28.4493 16.3281 29.1792 14.5142 30.4719 13.1264C31.0679 12.4866 31.0262 11.4918 30.3787 10.9028L19.2193 0.750805ZM68.9426 21.6958L68.9985 21.6174L76.789 28.7633L76.7179 28.849C74.8903 31.0963 73.8639 33.9141 73.8639 36.8899C73.8639 43.9289 79.5735 49.6456 86.6283 49.6456L87.0558 49.6385C90.1814 49.535 93.0952 48.3 95.3197 46.2285L95.5668 45.9889L103.641 53.3953L103.356 53.7879C94.9116 65.1343 75.4105 76.3279 64.9651 77.3425C55.0552 78.3051 48.55 76.9838 40.9771 71.9628C36.402 68.9294 28.3863 62.4957 16.9637 52.6842L14.2131 50.3133C27.1721 51.5199 40.1472 46.1214 54.1469 35.7443L54.9283 35.1373C61.154 30.271 65.6553 26.0856 68.9426 21.6958Z" fill="#C3C4C7"/>
<path fill-rule="evenodd" clip-rule="evenodd" d="M79.2992 58.225C77.8429 59.5417 77.7478 61.7704 79.086 63.2039C80.4255 64.6376 82.6934 64.7308 84.1497 63.4142C85.6073 62.0976 85.7024 59.8689 84.3628 58.4365C83.0232 57.004 80.7568 56.9084 79.2992 58.225Z" fill="#F0F0F1"/>
<path fill-rule="evenodd" clip-rule="evenodd" d="M69.9001 49.1512C68.4425 50.4677 68.3486 52.6963 69.687 54.1285C71.0264 55.5634 73.2943 55.6566 74.7507 54.34C76.2082 53.0235 76.3021 50.7949 74.9626 49.3613C73.623 47.929 71.3564 47.8346 69.9001 49.1512Z" fill="#F0F0F1"/>
<path fill-rule="evenodd" clip-rule="evenodd" d="M60.5505 39.7017C59.0942 41.0185 58.9991 43.2474 60.3374 44.6798C61.6769 46.1136 63.9448 46.2068 65.4011 44.89C66.8586 43.5746 66.9539 41.3445 65.6143 39.9119C64.2747 38.4794 62.0081 38.385 60.5505 39.7017Z" fill="#F0F0F1"/>
</svg>
