<svg width="22" height="21" viewBox="0 0 22 21" fill="none" xmlns="http://www.w3.org/2000/svg">
<g clip-path="url(#clip0_5866_15795)">
<path d="M21.855 8.67397C21.7495 8.01465 21.2451 7.67345 20.8759 7.42455C20.7539 7.34214 20.5693 7.21687 20.5429 7.16082C20.2644 6.26909 20.1111 5.19604 19.9726 4.27628C19.8605 3.53124 19.7254 2.86038 19.5754 2.33951C19.0875 0.641755 17.9963 0.5 17.0122 0.5H14.1195C13.7684 0.5 12.9211 0.5 12.2552 1.10987C12.0261 1.31921 12.1777 1.70162 12.4876 1.70162C12.5569 1.70162 12.6211 1.67195 12.6706 1.62415C13.0794 1.2302 13.6134 1.15932 14.1195 1.15932H17.0106C17.8825 1.15932 18.5781 1.25987 18.9424 2.52248C19.0776 2.98895 19.2094 3.6252 19.3182 4.3488C19.4616 5.29823 19.6166 6.4059 19.9133 7.35697C19.9973 7.62729 20.2446 7.79377 20.5067 7.97014C20.8198 8.18113 21.1429 8.40035 21.2022 8.77617C21.3275 9.569 21.4594 10.675 21.1544 11.1415C20.8973 11.5338 20.4424 11.7382 20.1275 11.7382H19.3166C19.31 11.7382 19.305 11.7365 19.3001 11.7365C19.3001 11.7365 19.3001 11.7365 19.2984 11.7365C19.2045 11.7365 19.1171 11.7744 19.0512 11.8404C18.9853 11.9063 18.949 11.9953 18.9506 12.0909L19.7534 15.3793C19.755 15.5524 19.8786 15.6958 20.0484 15.7221C20.0666 15.7254 20.0847 15.7271 20.1045 15.7271H20.1061C20.2001 15.7271 20.2874 15.6892 20.3534 15.6232C20.4193 15.5573 20.4556 15.4683 20.4539 15.3727L19.6809 12.3975H20.1292C20.7226 12.3975 21.3572 12.0382 21.7083 11.5025C22.0429 10.9898 22.0874 10.1443 21.855 8.67397Z" fill="#0F1031"/>
<path d="M9.77604 1.15438C9.2288 0.569229 8.50684 0.5 7.83433 0.5H4.94155C4.43552 0.5 2.89105 0.5 2.357 2.33787C2.22183 2.80104 2.06854 3.44883 1.93997 4.23507C1.77514 5.2356 1.63339 6.39765 1.34328 7.35203C1.2757 7.5729 1.01527 7.8152 0.784507 8.02948C0.520778 8.27508 0.271883 8.50584 0.202654 8.7877C-0.192941 10.3998 0.0674923 11.0393 0.34276 11.5107C0.591655 11.9376 1.22461 12.3975 1.8147 12.3975H2.32733L1.55262 15.3793C1.55757 15.5689 1.71415 15.7205 1.90206 15.7205C1.90536 15.7205 1.90866 15.7205 1.91195 15.7205C1.93173 15.7205 1.94986 15.7172 1.96799 15.7139C2.13777 15.6809 2.25645 15.5326 2.2515 15.3628L3.05423 12.0794C3.04929 11.8898 2.8927 11.7382 2.70479 11.7382C2.70149 11.7382 2.6982 11.7382 2.6949 11.7382H1.81305C1.48834 11.7382 1.06142 11.4382 0.911427 11.1794C0.738355 10.8827 0.476273 10.4327 0.842198 8.94594C0.863626 8.85529 1.08615 8.64925 1.23285 8.51244C1.5246 8.24211 1.85426 7.93388 1.97294 7.54323C2.27953 6.53282 2.42293 5.33944 2.5927 4.31254C2.71303 3.58234 2.86797 2.93291 2.9883 2.52248C3.33939 1.32086 4.17343 1.15932 4.94155 1.15932H7.83268C8.40794 1.15932 8.90573 1.20548 9.2832 1.59777C9.34748 1.66536 9.43814 1.69997 9.53044 1.69997C9.81395 1.70162 9.96889 1.36207 9.77604 1.15438Z" fill="#0F1031"/>
<path d="M3.12532 9.05078C2.944 9.05078 2.79565 9.19913 2.79565 9.38044C2.79565 9.56176 2.944 9.71011 3.12532 9.71011H4.37144C4.80659 9.71011 4.81648 9.05078 4.38792 9.05078H3.12532Z" fill="#0F1031"/>
<path d="M15.1991 4.68809C14.7063 2.97879 13.6563 2.85352 12.6228 2.85352H11.23H10.7025H9.30969C8.2762 2.85352 7.16524 3.12384 6.70865 4.68809C6.36745 5.86168 6.33119 8.47096 5.7345 10.4374C5.53506 11.0934 4.54607 11.6044 4.43398 12.0643C3.98235 13.8988 4.3219 14.5054 4.55431 14.9043C4.78672 15.3032 5.39495 15.7334 5.91417 15.7334H16.0051C16.5243 15.7334 17.1491 15.4103 17.4985 14.8779C17.8479 14.3455 17.843 13.3631 17.6106 11.9011C17.4556 10.9203 16.2672 10.6879 16.1205 10.2198C15.5337 8.34239 15.5716 5.98036 15.1991 4.68809Z" fill="#334AFF"/>
<path d="M14.2053 13.1478H7.78014C7.50652 13.1478 7.28564 12.9632 7.28564 12.734C7.28564 12.5049 7.50652 12.3203 7.78014 12.3203H14.2053C14.4789 12.3203 14.6997 12.5049 14.6997 12.734C14.6997 12.9632 14.4789 13.1478 14.2053 13.1478Z" fill="white"/>
<path d="M18.8484 9.05078C19.0297 9.05078 19.178 9.19913 19.178 9.38044C19.178 9.56176 19.0297 9.71011 18.8484 9.71011H17.6022C17.1671 9.71011 17.1572 9.05078 17.5857 9.05078H18.8484Z" fill="#0F1031"/>
<path d="M17.9353 11.8499C17.8183 11.1147 17.2496 10.7307 16.8342 10.4505C16.6842 10.3499 16.4568 10.1966 16.4337 10.1225C16.1139 9.09721 15.982 7.89559 15.865 6.83407C15.7727 5.98849 15.6853 5.19071 15.5139 4.59732C14.9617 2.68528 13.7321 2.52539 12.6211 2.52539H9.30803C8.73607 2.52539 6.9938 2.52539 6.39052 4.59732C6.23723 5.12478 6.14657 5.89289 6.04108 6.78133C5.90427 7.93679 5.75098 9.24555 5.41802 10.3433C5.33725 10.6087 5.03396 10.8922 4.76529 11.1411C4.46859 11.4164 4.18838 11.6785 4.11256 11.9867C3.62631 13.968 4.03014 14.6586 4.26915 15.0707C4.54771 15.547 5.25484 16.063 5.91416 16.063H6.2191L5.55977 19.6151C5.53505 19.887 5.7345 20.1277 6.00647 20.1524L6.08723 20.1541C6.32459 20.1376 6.52239 19.9513 6.54546 19.7057L7.21303 16.063H14.787L15.4562 19.714C15.4793 19.9579 15.6771 20.1458 15.9145 20.1623L15.9952 20.1607C16.2672 20.1359 16.4666 19.8953 16.4419 19.6233L15.7826 16.0646H16.0084C16.6727 16.0646 17.3831 15.6608 17.7771 15.0608C18.1529 14.4806 18.2007 13.5213 17.9353 11.8499ZM17.2216 14.6965C16.9183 15.1597 16.3793 15.402 16.0035 15.402H5.91251C5.52516 15.402 5.01748 15.0443 4.83781 14.7377C4.63507 14.3899 4.33014 13.8658 4.75375 12.1433C4.78177 12.0263 5.02243 11.8021 5.21528 11.6224C5.54494 11.3158 5.91746 10.9697 6.04932 10.5329C6.39876 9.37907 6.557 8.03899 6.69711 6.8555C6.79766 5.99673 6.88666 5.25499 7.02347 4.77863C7.4339 3.37097 8.40806 3.18142 9.30803 3.18142H12.6211C13.6398 3.18142 14.4541 3.29845 14.881 4.77698C15.0359 5.31433 15.12 6.08574 15.2106 6.90166C15.331 7.99284 15.4661 9.22907 15.8057 10.3153C15.898 10.6104 16.1732 10.7966 16.4666 10.9928C16.8342 11.24 17.2133 11.4971 17.2842 11.9488C17.4293 12.8685 17.5809 14.1493 17.2216 14.6965Z" fill="#0F1031"/>
</g>
<defs>
<clipPath id="clip0_5866_15795">
<rect width="22" height="19.661" fill="white" transform="translate(0 0.5)"/>
</clipPath>
</defs>
</svg>
