<svg width="24" height="24" viewBox="0 0 24 24" fill="none" xmlns="http://www.w3.org/2000/svg">
<path d="M14.3333 4.6875V5.25C14.3333 5.87227 13.812 6.375 13.1667 6.375H10.8333C10.188 6.375 9.66667 5.87227 9.66667 5.25V4.6875H7.33333C7.0125 4.6875 6.75 4.94062 6.75 5.25V18.75C6.75 19.0594 7.0125 19.3125 7.33333 19.3125H16.6667C16.9875 19.3125 17.25 19.0594 17.25 18.75V5.25C17.25 4.94062 16.9875 4.6875 16.6667 4.6875H14.3333ZM5 5.25C5 4.00898 6.04635 3 7.33333 3H16.6667C17.9536 3 19 4.00898 19 5.25V18.75C19 19.991 17.9536 21 16.6667 21H7.33333C6.04635 21 5 19.991 5 18.75V5.25ZM10.8333 14.25H13.1667C14.7781 14.25 16.0833 15.5086 16.0833 17.0625C16.0833 17.3719 15.8208 17.625 15.5 17.625H8.5C8.17917 17.625 7.91667 17.3719 7.91667 17.0625C7.91667 15.5086 9.22187 14.25 10.8333 14.25ZM9.66667 10.875C9.66667 10.2783 9.9125 9.70597 10.3501 9.28401C10.7877 8.86205 11.3812 8.625 12 8.625C12.6188 8.625 13.2123 8.86205 13.6499 9.28401C14.0875 9.70597 14.3333 10.2783 14.3333 10.875C14.3333 11.4717 14.0875 12.044 13.6499 12.466C13.2123 12.8879 12.6188 13.125 12 13.125C11.3812 13.125 10.7877 12.8879 10.3501 12.466C9.9125 12.044 9.66667 11.4717 9.66667 10.875Z" fill="black"/>
</svg>
