<svg width="19" height="21" viewBox="0 0 19 21" fill="none" xmlns="http://www.w3.org/2000/svg">
<path fill-rule="evenodd" clip-rule="evenodd" d="M12.2482 1.15052L1.92324 4.94449C1.71588 5.02069 1.60956 5.25055 1.68575 5.45791L6.85935 19.5375C6.93554 19.7448 7.16541 19.8512 7.37276 19.775L17.6978 15.981C17.9051 15.9048 18.0115 15.6749 17.9353 15.4676L12.7617 1.38802C12.6855 1.18066 12.4556 1.07433 12.2482 1.15052ZM1.7163 4.38131C1.1979 4.5718 0.932081 5.14646 1.12257 5.66486L6.29617 19.7444C6.48665 20.2628 7.06131 20.5286 7.57971 20.3381L17.9047 16.5442C18.4231 16.3537 18.6889 15.779 18.4984 15.2606L13.3248 1.18107C13.1344 0.662676 12.5597 0.396855 12.0413 0.587341L1.7163 4.38131Z" fill="black"/>
<path d="M11.1507 11.2107L9.27346 11.9006C7.97697 12.377 7.2916 13.7554 7.7419 14.9809C7.83155 15.2248 8.1161 15.3469 8.37422 15.252L14.006 13.1826C14.2642 13.0877 14.402 12.8105 14.3124 12.5665C13.8621 11.341 12.4472 10.7343 11.1507 11.2107Z" fill="black"/>
<path d="M7.44558 8.12706C7.2158 8.5892 7.18387 9.11321 7.35679 9.58382C7.52972 10.0544 7.89335 10.4331 8.36768 10.6365C8.84202 10.8399 9.38821 10.8514 9.88609 10.6684C10.384 10.4855 10.7928 10.1231 11.0225 9.66094C11.2523 9.19881 11.2843 8.6748 11.1113 8.20419C10.9384 7.73358 10.5748 7.35492 10.1005 7.15152C9.62612 6.94811 9.07993 6.93662 8.58204 7.11957C8.08416 7.30252 7.67536 7.66493 7.44558 8.12706Z" fill="black"/>
<path d="M5.12594 2.06305L7.94185 1.02833L8.28676 1.96697L5.47085 3.00169L5.12594 2.06305Z" fill="black"/>
<path fill-rule="evenodd" clip-rule="evenodd" d="M4.80505 1.91462L8.09028 0.707444L8.43519 1.64608L11.9551 0.352681C12.6031 0.114572 13.3214 0.44685 13.5595 1.09484L18.7331 15.1744C18.9712 15.8224 18.6389 16.5407 17.9909 16.7788L7.66594 20.5728C7.01794 20.8109 6.29961 20.4786 6.06151 19.8306L0.887909 5.75108C0.6498 5.10309 0.982078 4.38476 1.63007 4.14665L5.14996 2.85325L4.80505 1.91462ZM5.47085 3.00169L1.7163 4.38131C1.1979 4.5718 0.932081 5.14646 1.12257 5.66486L6.29617 19.7444C6.48665 20.2628 7.06131 20.5286 7.57971 20.3381L17.9047 16.5442C18.4231 16.3537 18.6889 15.779 18.4984 15.2606L13.3248 1.18107C13.1344 0.662676 12.5597 0.396855 12.0413 0.587341L8.28676 1.96697L7.94185 1.02833L5.12594 2.06305L5.47085 3.00169ZM12.3345 1.38518L2.00947 5.17915C1.93171 5.20773 1.89184 5.29393 1.92041 5.37169L7.09401 19.4512C7.12258 19.529 7.20878 19.5689 7.28654 19.5403L17.6115 15.7463C17.6893 15.7178 17.7292 15.6316 17.7006 15.5538L12.527 1.47424C12.4984 1.39648 12.4122 1.35661 12.3345 1.38518ZM9.18724 11.6659L11.0645 10.9761C12.478 10.4567 14.0446 11.1129 14.547 12.4803C14.6888 12.8661 14.4674 13.2794 14.0923 13.4172L8.46045 15.4867C8.08536 15.6245 7.64903 15.4529 7.50724 15.0671C7.0048 13.6997 7.77378 12.1853 9.18724 11.6659ZM7.12213 9.67004C6.92472 9.1328 6.96236 8.53741 7.22173 8.01576C7.48081 7.4947 7.93983 7.08921 8.49582 6.88491C9.05181 6.68061 9.66416 6.69241 10.199 6.92175C10.7344 7.15135 11.1486 7.58071 11.346 8.11796C11.5434 8.65521 11.5058 9.25059 11.2464 9.77225C10.9873 10.2933 10.5283 10.6988 9.97232 10.9031C9.41633 11.1074 8.80397 11.0956 8.26915 10.8663C7.73373 10.6366 7.31955 10.2073 7.12213 9.67004ZM1.92324 4.94449L12.2482 1.15052C12.4556 1.07433 12.6855 1.18066 12.7617 1.38802L17.9353 15.4676C18.0115 15.6749 17.9051 15.9048 17.6978 15.981L7.37276 19.775C7.16541 19.8512 6.93554 19.7448 6.85935 19.5375L1.68575 5.45791C1.60956 5.25055 1.71588 5.02069 1.92324 4.94449ZM11.1507 11.2107C12.4472 10.7343 13.8621 11.341 14.3124 12.5665C14.402 12.8105 14.2642 13.0877 14.006 13.1826L8.37422 15.252C8.1161 15.3469 7.83155 15.2248 7.7419 14.9809C7.2916 13.7554 7.97697 12.377 9.27346 11.9006L11.1507 11.2107ZM7.44558 8.12706C7.2158 8.5892 7.18387 9.11321 7.35679 9.58382C7.52972 10.0544 7.89335 10.4331 8.36768 10.6365C8.84202 10.8399 9.38821 10.8514 9.88609 10.6684C10.384 10.4855 10.7928 10.1231 11.0225 9.66094C11.2523 9.19881 11.2843 8.6748 11.1113 8.20419C10.9384 7.73358 10.5748 7.35492 10.1005 7.15152C9.62612 6.94811 9.07993 6.93662 8.58204 7.11957C8.08416 7.30252 7.67536 7.66493 7.44558 8.12706Z" fill="black"/>
</svg>
