<svg width="19" height="15" viewBox="0 0 19 15" fill="none" xmlns="http://www.w3.org/2000/svg">
<path d="M1.55322 3.24594C1.01747 3.35309 0.674735 3.86711 0.7776 4.4037C1.17529 6.47821 2.11729 11.3784 2.61018 13.8275C2.71691 14.3579 3.22236 14.6994 3.75406 14.5996C7.18135 13.9563 15.3342 12.3634 18.1418 11.814C18.6812 11.7084 19.0298 11.1923 18.9274 10.6522C18.5314 8.56509 17.5959 3.64765 17.112 1.2248C17.0053 0.690399 16.4927 0.348267 15.9575 0.45099C13.1594 0.988059 4.98803 2.55894 1.55322 3.24594ZM2.6181 3.9694L15.2582 1.52667L10.4273 7.48951C10.1181 7.87114 9.57756 7.97173 9.15178 7.72687L2.6181 3.9694ZM1.80955 4.7675L9.89071 10.5001C10.2046 10.6399 10.4021 10.5663 10.5647 10.3698L16.3059 1.96606L18.0312 10.8937L3.53483 13.6951L1.80955 4.7675Z" fill="black"/>
</svg>
