<svg width="13" height="16" viewBox="0 0 13 16" fill="none" xmlns="http://www.w3.org/2000/svg">
<g clip-path="url(#clip0_2691_12183)">
<path d="M12.6549 12.8181H3.34931C3.2578 12.8181 3.17004 12.7801 3.10533 12.7124C3.04062 12.6447 3.00427 12.553 3.00427 12.4573V0.360861C3.00427 0.265155 3.04062 0.173368 3.10533 0.105694C3.17004 0.0380192 3.2578 0 3.34931 0L12.6549 0C12.7464 0 12.8342 0.0380192 12.8989 0.105694C12.9636 0.173368 12.9999 0.265155 12.9999 0.360861V12.4573C12.9999 12.553 12.9636 12.6447 12.8989 12.7124C12.8342 12.7801 12.7464 12.8181 12.6549 12.8181ZM5.08763 11.0015H10.9166C11.0084 11.0015 11.0965 10.9633 11.1615 10.8954C11.2264 10.8274 11.2629 10.7353 11.2629 10.6392V2.17889C11.2626 2.08305 11.2259 1.99127 11.161 1.92364C11.0961 1.856 11.0082 1.81803 10.9166 1.81803H5.08763C4.996 1.81803 4.9081 1.856 4.84319 1.92364C4.77827 1.99127 4.74163 2.08305 4.74128 2.17889V10.6392C4.74128 10.7353 4.77777 10.8274 4.84272 10.8954C4.90768 10.9633 4.99577 11.0015 5.08763 11.0015Z" fill="#CCCCCC"/>
<path d="M8.6037 15.9999H0.33849C0.293757 15.9997 0.249498 15.9903 0.208252 15.9722C0.167006 15.9541 0.129586 15.9276 0.098138 15.8944C0.0666899 15.8611 0.0418332 15.8216 0.024994 15.7783C0.0081547 15.735 -0.00033561 15.6886 1.01511e-05 15.6418V4.64306C0.000357223 4.54905 0.0363098 4.45901 0.0999956 4.39266C0.163681 4.32631 0.249911 4.28906 0.339802 4.28906H1.10335C1.19324 4.28906 1.27947 4.32631 1.34316 4.39266C1.40684 4.45901 1.4428 4.54905 1.44314 4.64306V14.1325C1.44314 14.2267 1.47894 14.3171 1.54267 14.3838C1.60639 14.4504 1.69282 14.4878 1.78293 14.4878H8.60502C8.69513 14.4878 8.78156 14.5253 8.84529 14.5919C8.90901 14.6586 8.94481 14.749 8.94481 14.8432V15.6418C8.94516 15.6888 8.93658 15.7354 8.91958 15.7789C8.90257 15.8225 8.87748 15.862 8.84576 15.8953C8.81403 15.9286 8.7763 15.955 8.73475 15.973C8.6932 15.9909 8.64866 16.0001 8.6037 15.9999Z" fill="#CCCCCC"/>
</g>
<defs>
<clipPath id="clip0_2691_12183">
<rect width="13" height="16" fill="white"/>
</clipPath>
</defs>
</svg>
