<svg width="18" height="22" viewBox="0 0 18 22" fill="none" xmlns="http://www.w3.org/2000/svg">
<path d="M12.6965 12.9821C12.8234 13.3274 12.6717 13.701 12.3577 13.8164L11.5996 14.0951C11.2855 14.2105 10.9281 14.0241 10.8011 13.6788C10.6742 13.3335 10.8259 12.96 11.1399 12.8445L11.8981 12.5659C12.2121 12.4504 12.5696 12.6368 12.6965 12.9821Z" fill="black"/>
<path d="M9.32514 14.9311C9.63917 14.8156 9.79085 14.4421 9.66392 14.0968C9.53699 13.7515 9.17953 13.5651 8.86549 13.6805L8.10735 13.9592C7.79332 14.0746 7.64164 14.4481 7.76857 14.7935C7.8955 15.1388 8.25297 15.3252 8.567 15.2097L9.32514 14.9311Z" fill="black"/>
<path fill-rule="evenodd" clip-rule="evenodd" d="M16.9061 17.4369C17.364 17.2686 17.6026 16.7711 17.4389 16.3258L11.9807 1.47623C11.817 1.03092 11.3131 0.806379 10.8551 0.974707L8.02175 2.01616C8.38636 3.06506 7.82034 4.22578 6.74425 4.62131C5.66815 5.01685 4.48515 4.49902 4.08367 3.46367L1.25029 4.50513C0.792334 4.67346 0.553781 5.17091 0.717464 5.61623L6.17568 20.4658C6.33936 20.9111 6.8433 21.1357 7.30125 20.9673L10.1346 19.9259C10.1303 19.9148 10.1261 19.9036 10.122 19.8924C10.1195 19.8856 10.117 19.8787 10.1146 19.8719C10.113 19.8675 10.1115 19.8631 10.1099 19.8587C9.74532 18.8098 10.3113 17.6491 11.3874 17.2535C12.4635 16.858 13.6465 17.3758 14.048 18.4112C14.0523 18.4223 14.0565 18.4334 14.0607 18.4447C14.0648 18.4559 14.0688 18.4671 14.0727 18.4784L16.9061 17.4369ZM11.0627 1.9662L9.15981 2.66564C9.15361 3.91371 8.36008 5.09518 7.09002 5.56201C5.81995 6.02884 4.45016 5.64254 3.63715 4.69559L1.73425 5.39503L5.26604 15.0036L5.97089 14.7445C6.28492 14.6291 6.64239 14.8154 6.76932 15.1608C6.89625 15.5061 6.74457 15.8796 6.43054 15.995L5.72569 16.2541L7.09368 19.9758L8.97242 19.2853C8.94602 18.0095 9.74584 16.7891 11.0417 16.3128C12.3375 15.8365 13.7373 16.2484 14.5434 17.2376L16.4221 16.547L15.0541 12.8253L14.3493 13.0843C14.0353 13.1998 13.6778 13.0134 13.5509 12.6681C13.4239 12.3228 13.5756 11.9493 13.8896 11.8338L14.5945 11.5748L11.0627 1.9662Z" fill="black"/>
</svg>
