<svg xmlns="http://www.w3.org/2000/svg" width="247" height="40" fill="none"><path fill="#0F1031" d="M67.002 28h9.988v-2.64h-7.128v-4.246h5.808v-2.64h-5.808V15.24h6.908V12.6h-9.768V28Zm18.037 0h1.848l4.642-11.088h-2.75l-2.816 7.238-2.816-7.238h-2.75L85.039 28Zm15.154.176c2.684 0 4.18-1.276 5.038-2.772l-2.178-1.144c-.572.88-1.452 1.584-2.706 1.584-1.694 0-2.728-1.276-2.794-2.508h7.81v-1.122c0-2.42-1.474-5.478-5.17-5.478-3.806 0-5.324 3.102-5.324 5.72s1.518 5.72 5.324 5.72Zm-2.618-6.908c.22-1.144 1.1-2.288 2.618-2.288 1.584 0 2.332 1.1 2.596 2.288h-5.214ZM109.364 28h2.728v-4.422c0-2.816 1.21-4.488 2.75-4.488.814 0 1.584.484 1.584 1.804V28h2.728v-7.92c0-2.222-1.43-3.344-3.41-3.344-1.43 0-2.838.792-3.652 1.958v-1.782h-2.728V28Zm20.742.176c1.166 0 2.178-.418 3.19-1.43l-.924-2.2c-.792.946-1.518 1.298-2.266 1.298-1.144 0-1.826-.704-1.826-2.244v-4.356h4.818v-2.332h-4.818v-4.488l-2.728 1.716v2.772h-2.728v2.332h2.728v4.29c0 3.102 1.628 4.642 4.554 4.642ZM155.245 28h2.86V15.24h4.334V12.6h-11.528v2.64h4.334V28Zm15.441-12.518c1.012 0 1.76-.77 1.76-1.76s-.748-1.76-1.76-1.76-1.76.77-1.76 1.76.748 1.76 1.76 1.76ZM166.022 28h9.592v-2.332h-3.432v-8.756h-5.61v2.332h2.882v6.424h-3.432V28Zm19.071.176c2.288 0 3.894-.99 4.796-3.058l-2.332-.99c-.594 1.342-1.386 1.716-2.464 1.716-1.518 0-2.596-1.21-2.596-3.388s1.078-3.388 2.596-3.388c1.078 0 1.87.374 2.464 1.716l2.332-.99c-.902-2.068-2.508-3.058-4.796-3.058-3.388 0-5.324 2.618-5.324 5.72s1.936 5.72 5.324 5.72Zm8.928-.176h2.728v-5.038L200.885 28h3.3l-5.236-6.006 4.73-5.082h-3.3l-3.63 4.114v-8.602h-2.728V28Zm19.313.176c2.684 0 4.18-1.276 5.038-2.772l-2.178-1.144c-.572.88-1.452 1.584-2.706 1.584-1.694 0-2.728-1.276-2.794-2.508h7.81v-1.122c0-2.42-1.474-5.478-5.17-5.478-3.806 0-5.324 3.102-5.324 5.72s1.518 5.72 5.324 5.72Zm-2.618-6.908c.22-1.144 1.1-2.288 2.618-2.288 1.584 0 2.332 1.1 2.596 2.288h-5.214Zm18.388 6.908c1.166 0 2.178-.418 3.19-1.43l-.924-2.2c-.792.946-1.518 1.298-2.266 1.298-1.144 0-1.826-.704-1.826-2.244v-4.356h4.818v-2.332h-4.818v-4.488l-2.728 1.716v2.772h-2.728v2.332h2.728v4.29c0 3.102 1.628 4.642 4.554 4.642Zm12.647 0c2.442 0 4.444-1.276 4.444-3.564 0-2.002-1.496-2.838-4.07-3.344-1.65-.33-2.002-.726-2.002-1.254 0-.572.704-.946 1.43-.946.924 0 1.782.418 2.354 1.518l1.958-1.364c-.836-1.518-2.222-2.486-4.334-2.486-2.002 0-3.938 1.232-3.938 3.212 0 2.002 1.496 3.08 3.74 3.564 1.76.374 2.332.682 2.332 1.276 0 .638-.792 1.056-1.826 1.056-1.364 0-2.112-.572-2.508-1.848l-2.464.858c.836 2.442 2.662 3.322 4.884 3.322Z"/><path fill="#334AFF" fill-rule="evenodd" d="M38.415 37.526c3.87-1.597 11.142-6.856 14.013-11.159l-5.796-5.16a5.517 5.517 0 0 1-4.348 2.102c-3.036 0-5.499-2.426-5.499-5.417 0-1.496 1.611-3.832 1.611-3.832l-4.919-4.724c-1.32 1.923-4.041 5.08-7.517 7.626-1.601 1.171-3.361 2.213-5.218 2.945" clip-rule="evenodd"/><path fill="#0F1031" fill-rule="evenodd" d="m8.956.178-.061-.05A.674.674 0 0 0 8 .221C3 5.745.152 11.701.006 16.944c-.101 3.595 1.12 5.868 3.272 6.983l.916.81c7.166 6.324 12.076 10.378 14.754 12.179l.251.167c3.934 2.577 7.439 3.266 12.535 2.764 5.811-.572 16.45-6.882 20.525-13.178a.673.673 0 0 0-.106-.859l-5.07-4.715-.06-.05a.674.674 0 0 0-.934.134 4.79 4.79 0 0 1-3.816 1.904c-2.667 0-4.833-2.2-4.833-4.918 0-1.324.516-2.564 1.42-3.481l.135-.131a.673.673 0 0 0-.002-.985l-5.08-4.725-.059-.05a.674.674 0 0 0-.96.17c-1.61 2.42-4 4.704-7.526 7.47l-.311.232C18.2 21.75 11.93 24.227 5.777 23.31c-2.893-.431-4.538-2.298-4.425-6.328l.01-.268C1.58 12.067 4.09 6.743 8.483 1.705l.063-.072 4.538 4.186-.06.086c-.58.857-.9 1.876-.9 2.944 0 2.895 2.334 5.244 5.215 5.244l.186-.003a5.179 5.179 0 0 0 3.149-1.208l.033-.03 2.357 2.174a.673.673 0 1 0 .913-.99l-2.823-2.604a.673.673 0 0 0-.956.043 3.841 3.841 0 0 1-2.859 1.272c-2.135 0-3.868-1.745-3.868-3.898 0-.994.37-1.929 1.027-2.644a.673.673 0 0 0-.04-.95L8.957.178ZM33.497 10.45l.067-.093 4.015 3.736-.087.103a6.297 6.297 0 0 0-1.398 3.97c0 3.457 2.764 6.264 6.18 6.264l.2-.003a6.118 6.118 0 0 0 4.171-1.836l.033-.035 4.136 3.848-.121.171c-4.141 5.738-13.875 11.419-19.09 11.933-4.912.484-8.146-.183-11.904-2.71l-.384-.263c-2.318-1.616-6.159-4.76-11.509-9.42l-1.585-1.388c6.272.714 12.552-1.79 19.312-6.739l.655-.486.36-.283c3.098-2.454 5.328-4.56 6.95-6.768Z" clip-rule="evenodd"/><path fill="#fff" fill-rule="evenodd" d="M39.204 29.87a1.76 1.76 0 0 0 .102 2.49 1.77 1.77 0 0 0 2.497-.102 1.758 1.758 0 0 0-.102-2.49 1.771 1.771 0 0 0-2.497.103M33.902 25.174a1.758 1.758 0 0 0 .103 2.489 1.77 1.77 0 0 0 2.497-.102 1.758 1.758 0 0 0-.103-2.49 1.77 1.77 0 0 0-2.497.103M28.601 20.476c-.66.716-.614 1.83.103 2.49a1.77 1.77 0 0 0 2.497-.104 1.758 1.758 0 0 0-.103-2.49 1.77 1.77 0 0 0-2.497.104" clip-rule="evenodd"/></svg>