<svg xmlns="http://www.w3.org/2000/svg" width="53" height="40">
  <g fill="none" fill-rule="evenodd">
    <path d="M38.29 38c3.786-1.586 10.901-6.81 13.71-11.083l-5.671-5.125a5.38 5.38 0 0 1-9.633-3.294c0-1.486 1.576-3.805 1.576-3.805L33.46 10c-1.291 1.91-3.954 5.047-7.355 7.574-1.566 1.164-3.288 2.199-5.105 2.926" fill="#3D54FF"/>
    <path d="M3 23.34c7.773 6.706 13.05 10.968 15.829 12.786 4.168 2.727 7.694 3.165 12.269 2.727C35.672 38.414 46.54 33.106 51 26.405l-5.038-4.56a5.483 5.483 0 0 1-4.325 2.097c-3.022 0-5.472-2.42-5.472-5.405a5.359 5.359 0 0 1 1.757-3.968L32.872 10c-1.916 2.803-4.918 5.31-7.623 7.374" stroke="#0F1031" stroke-width="1.8" stroke-linecap="round" stroke-linejoin="round"/>
    <path d="M23.747 14.567c-.625-.566-1.562-1.416-2.81-2.55a4.53 4.53 0 0 1-3.344 1.462c-2.498 0-4.522-2.003-4.522-4.475a4.43 4.43 0 0 1 1.2-3.034L8.79 1C3.88 6.336 1.146 12.024 1.006 16.948c-.14 4.924 2.447 6.495 4.977 6.866C13.41 24.902 20.481 21.027 26 16.948" stroke="#0F1031" stroke-width="1.8" stroke-linecap="round" stroke-linejoin="round"/>
    <path d="M38.529 29.645a2 2 0 1 0 2.942 2.71 2 2 0 0 0-2.942-2.71M32.529 24.645a2 2 0 1 0 2.941 2.71 2 2 0 0 0-2.941-2.71M27.529 19.645a2 2 0 1 0 2.944 2.71 2 2 0 0 0-2.944-2.71" fill="#FFF"/>
  </g>
</svg>
