<svg width="24" height="24" viewBox="0 0 24 24" fill="none"
	xmlns="http://www.w3.org/2000/svg">
	<g id="icon-bulb">
		<path id="Vector" d="M16.4998 9C16.4998 11.4508 14.8927 11.3989 14.2958 14.7746C14.227 15.2143 13.8592 15.5376 13.4004 15.5376H10.5994C10.1402 15.5376 9.77284 15.2141 9.70401 14.7746C9.1071 11.3989 7.5 11.4506 7.5 9C7.5 6.52576 9.54331 4.5 12 4.5C14.4567 4.5 16.4998 6.52576 16.4998 9ZM13.9977 16.6241C13.9977 16.8553 13.8137 17.0402 13.5844 17.0402H10.4159C10.1863 17.0402 10.0026 16.855 10.0026 16.6241C10.0026 16.3932 10.1863 16.2079 10.4159 16.2079H13.5841C13.8138 16.2079 13.9977 16.3928 13.9977 16.6241ZM13.5844 18.1038C13.5844 18.335 13.4005 18.5196 13.1712 18.5196H10.7486C10.5189 18.5196 10.3353 18.3347 10.3353 18.1038C10.3353 17.8723 10.5189 17.6879 10.7486 17.6879L13.1709 17.6879C13.4005 17.6879 13.5844 17.8723 13.5844 18.1038ZM11 19H13L12.5 19.5H11.5L11 19Z" fill="#334AFF"/>
	</g>
</svg>
