<svg xmlns="http://www.w3.org/2000/svg" width="19" height="19" viewBox="0 0 19 19" fill="none">
  <path d="M9.5 17.5001C13.9183 17.5001 17.5 13.9184 17.5 9.50012C17.5 5.08184 13.9183 1.50012 9.5 1.50012C5.08172 1.50012 1.5 5.08184 1.5 9.50012C1.5 13.9184 5.08172 17.5001 9.5 17.5001Z" stroke="#727373" stroke-width="1.5" stroke-miterlimit="10"/>
  <path d="M9.5 13.6667V14.6667" stroke="#727373" stroke-width="1.5" stroke-miterlimit="10" stroke-linecap="round"/>
  <path d="M9.5 4.41675V5.41675" stroke="#727373" stroke-width="1.5" stroke-miterlimit="10" stroke-linecap="round"/>
  <path d="M11.9544 7.08793C11.9544 7.08793 11.5753 5.66675 9.59095 5.66675C7.60661 5.66675 6.99235 6.8867 6.99235 7.56585C6.99235 10.186 12.084 8.49654 12.084 11.1985C12.084 12.1543 11.2946 13.1709 9.35101 13.1667C7.42905 13.1625 6.83398 11.4207 6.83398 11.4207" stroke="#727373" stroke-width="1.5" stroke-miterlimit="10" stroke-linecap="round"/>
</svg>