<svg width="24" height="24" viewBox="0 0 24 24" fill="none"
	xmlns="http://www.w3.org/2000/svg">
	<g id="icon-pass-left">
		<g id="Vector">
			<path fill-rule="evenodd" clip-rule="evenodd" d="M14.2486 3.15113L3.92361 6.94511C3.71625 7.0213 3.60992 7.25116 3.68612 7.45852L8.85971 21.5381C8.93591 21.7454 9.16577 21.8518 9.37313 21.7756L19.6981 17.9816C19.9055 17.9054 20.0118 17.6755 19.9356 17.4682L14.762 3.38863C14.6858 3.18127 14.456 3.07494 14.2486 3.15113ZM3.71666 6.38192C3.19827 6.57241 2.93245 7.14707 3.12293 7.66547L8.29653 21.745C8.48702 22.2634 9.06168 22.5292 9.58008 22.3388L19.9051 18.5448C20.4235 18.3543 20.6893 17.7796 20.4988 17.2612L15.3252 3.18168C15.1347 2.66329 14.5601 2.39746 14.0417 2.58795L3.71666 6.38192Z" fill="black"/>
			<path d="M13.1511 13.2113L11.2738 13.9012C9.97734 14.3776 9.29196 15.756 9.74226 16.9815C9.83192 17.2254 10.1165 17.3475 10.3746 17.2526L16.0064 15.1832C16.2645 15.0883 16.4024 14.8111 16.3127 14.5671C15.8624 13.3417 14.4476 12.7349 13.1511 13.2113Z" fill="black"/>
			<path d="M9.44595 10.1277C9.21617 10.5898 9.18423 11.1138 9.35716 11.5844C9.53009 12.055 9.89371 12.4337 10.368 12.6371C10.8424 12.8405 11.3886 12.852 11.8865 12.669C12.3843 12.4861 12.7931 12.1237 13.0229 11.6616C13.2527 11.1994 13.2846 10.6754 13.1117 10.2048C12.9388 9.73419 12.5752 9.35554 12.1008 9.15213C11.6265 8.94873 11.0803 8.93723 10.5824 9.12018C10.0845 9.30313 9.67573 9.66554 9.44595 10.1277Z" fill="black"/>
			<path d="M7.12631 4.06366L9.94222 3.02894L10.2871 3.96758L7.47121 5.0023L7.12631 4.06366Z" fill="black"/>
			<path fill-rule="evenodd" clip-rule="evenodd" d="M6.80542 3.91523L10.0906 2.70805L10.4356 3.64669L13.9554 2.35329C14.6034 2.11518 15.3218 2.44746 15.5599 3.09545L20.7335 17.175C20.9716 17.823 20.6393 18.5413 19.9913 18.7794L9.6663 22.5734C9.01831 22.8115 8.29998 22.4792 8.06187 21.8312L2.88828 7.75169C2.65017 7.1037 2.98244 6.38537 3.63044 6.14726L7.15033 4.85386L6.80542 3.91523ZM7.47121 5.0023L3.71666 6.38192C3.19827 6.57241 2.93245 7.14707 3.12293 7.66547L8.29653 21.745C8.48702 22.2634 9.06168 22.5292 9.58008 22.3388L19.9051 18.5448C20.4235 18.3543 20.6893 17.7796 20.4988 17.2612L15.3252 3.18168C15.1347 2.66329 14.5601 2.39746 14.0417 2.58795L10.2871 3.96758L9.94222 3.02894L7.12631 4.06366L7.47121 5.0023ZM14.3348 3.38579L4.00984 7.17976C3.93208 7.20834 3.8922 7.29454 3.92078 7.3723L9.09437 21.4519C9.12295 21.5296 9.20915 21.5695 9.2869 21.5409L19.6119 17.7469C19.6897 17.7184 19.7295 17.6322 19.701 17.5544L14.5274 3.47485C14.4988 3.39709 14.4126 3.35722 14.3348 3.38579ZM11.1876 13.6665L13.0649 12.9767C14.4783 12.4573 16.0449 13.1135 16.5474 14.4809C16.6892 14.8668 16.4677 15.28 16.0926 15.4178L10.4608 17.4873C10.0857 17.6251 9.64939 17.4536 9.50761 17.0677C9.00517 15.7003 9.77414 14.1859 11.1876 13.6665ZM9.1225 11.6707C8.92509 11.1334 8.96272 10.538 9.22209 10.0164C9.48117 9.49531 9.9402 9.08982 10.4962 8.88552C11.0522 8.68122 11.6645 8.69302 12.1993 8.92236C12.7348 9.15196 13.149 9.58133 13.3464 10.1186C13.5438 10.6558 13.5061 11.2512 13.2468 11.7729C12.9877 12.2939 12.5287 12.6994 11.9727 12.9037C11.4167 13.108 10.8043 13.0962 10.2695 12.8669C9.7341 12.6373 9.31991 12.2079 9.1225 11.6707ZM3.92361 6.94511L14.2486 3.15113C14.456 3.07494 14.6858 3.18127 14.762 3.38863L19.9356 17.4682C20.0118 17.6755 19.9055 17.9054 19.6981 17.9816L9.37313 21.7756C9.16577 21.8518 8.93591 21.7454 8.85971 21.5381L3.68612 7.45852C3.60992 7.25116 3.71625 7.0213 3.92361 6.94511ZM13.1511 13.2113C14.4476 12.7349 15.8624 13.3417 16.3127 14.5671C16.4024 14.8111 16.2645 15.0883 16.0064 15.1832L10.3746 17.2526C10.1165 17.3475 9.83192 17.2254 9.74226 16.9815C9.29196 15.756 9.97734 14.3776 11.2738 13.9012L13.1511 13.2113ZM9.44595 10.1277C9.21617 10.5898 9.18423 11.1138 9.35716 11.5844C9.53009 12.055 9.89371 12.4337 10.368 12.6371C10.8424 12.8405 11.3886 12.852 11.8865 12.669C12.3843 12.4861 12.7931 12.1237 13.0229 11.6616C13.2527 11.1994 13.2846 10.6754 13.1117 10.2048C12.9388 9.73419 12.5752 9.35554 12.1008 9.15213C11.6265 8.94873 11.0803 8.93723 10.5824 9.12018C10.0845 9.30313 9.67573 9.66554 9.44595 10.1277Z" fill="black"/>
		</g>
	</g>
</svg>
