<svg width="21" height="21" viewBox="0 0 21 21" fill="none" xmlns="http://www.w3.org/2000/svg">
<g clip-path="url(#clip0_4728_78585)">
<path d="M17.8334 11.0809C17.694 10.1888 17.0249 9.7427 16.5789 9.43604C16.486 9.371 16.3652 9.28736 16.3094 9.2409C16.012 8.27445 15.8912 7.12216 15.7797 6.10925C15.6868 5.25432 15.5939 4.44585 15.4173 3.82324C14.7482 1.50006 13.0198 1.50006 12.1834 1.50006H10.455H8.71724C7.89019 1.50006 6.16174 1.50006 5.49267 3.82324C5.30681 4.44585 5.22318 5.25432 5.13025 6.11854C5.01874 7.13145 4.88864 8.27445 4.60057 9.25019C4.53552 9.29665 4.41471 9.38029 4.32179 9.44534C3.87574 9.7427 3.20666 10.198 3.06727 11.0901C2.78849 12.8744 2.84424 13.878 3.281 14.5377C3.73634 15.2347 4.5634 15.6993 5.34399 15.6993H5.68782L5.21389 18.6916C5.14884 19.0726 5.40903 19.4257 5.79004 19.4908C5.82721 19.5001 5.86438 19.5001 5.90155 19.5001C6.23609 19.5001 6.53345 19.2584 6.58921 18.9146L7.1189 15.6993H10.455H13.7911L14.3208 18.9146C14.3765 19.2584 14.6739 19.5001 15.0084 19.5001C15.0456 19.5001 15.0828 19.5001 15.1199 19.4908C15.5009 19.4257 15.7611 19.0726 15.6961 18.6916L15.2036 15.6993H15.5474C16.328 15.6993 17.155 15.2347 17.6104 14.5377C18.0564 13.8687 18.1122 12.8651 17.8334 11.0809ZM16.4488 13.7665C16.2165 14.1103 15.8169 14.3054 15.5474 14.3054H10.455H5.36257C5.09308 14.3054 4.6842 14.1196 4.46118 13.7665C4.24744 13.4412 4.24744 12.6142 4.45188 11.2946C4.49835 11.0251 4.73067 10.8485 5.11167 10.5883C5.41833 10.3839 5.78074 10.1423 5.91084 9.72412C6.26396 8.60899 6.39406 7.36377 6.51487 6.26723C6.5985 5.46805 6.68214 4.71534 6.83082 4.21354C7.18394 2.9869 7.77868 2.89397 8.71724 2.89397H10.455H12.1927C13.1313 2.89397 13.726 2.9869 14.0884 4.21354C14.2371 4.71534 14.3208 5.46805 14.4044 6.26723C14.5252 7.36377 14.6646 8.61829 15.0084 9.72412C15.1385 10.1423 15.4916 10.3839 15.8076 10.5976C16.1886 10.8578 16.4209 11.0251 16.4674 11.3039C16.6625 12.6142 16.6625 13.4412 16.4488 13.7665Z" fill="#727272"/>
<path d="M13.6424 11.2388H10.455H7.25829C6.87729 11.2388 6.56133 11.5548 6.56133 11.9358C6.56133 12.3168 6.87729 12.6327 7.25829 12.6327H10.455H13.6517C14.0327 12.6327 14.3486 12.3168 14.3486 11.9358C14.3486 11.5548 14.0327 11.2388 13.6424 11.2388Z" fill="#727272"/>
</g>
<defs>
<clipPath id="clip0_4728_78585">
<rect width="15.1007" height="18" fill="white" transform="translate(2.9 1.50006)"/>
</clipPath>
</defs>
</svg>
