<svg width="21" height="21" viewBox="0 0 21 21" fill="none"
	xmlns="http://www.w3.org/2000/svg">
	<g clip-path="url(#clip0_4412_219)">
		<path d="M10.5 13C11.8807 13 13 11.8807 13 10.5C13 9.11929 11.8807 8 10.5 8C9.11929 8 8 9.11929 8 10.5C8 11.8807 9.11929 13 10.5 13Z" stroke="#727272" stroke-width="1.5" stroke-linecap="round" stroke-linejoin="round"/>
		<path d="M16.6668 12.9999C16.5559 13.2513 16.5228 13.5301 16.5718 13.8004C16.6208 14.0707 16.7497 14.3202 16.9418 14.5166L16.9918 14.5666C17.1468 14.7214 17.2697 14.9052 17.3536 15.1075C17.4375 15.3098 17.4806 15.5267 17.4806 15.7458C17.4806 15.9648 17.4375 16.1817 17.3536 16.384C17.2697 16.5863 17.1468 16.7701 16.9918 16.9249C16.837 17.0799 16.6532 17.2028 16.4509 17.2867C16.2486 17.3706 16.0317 17.4137 15.8127 17.4137C15.5936 17.4137 15.3768 17.3706 15.1744 17.2867C14.9721 17.2028 14.7883 17.0799 14.6335 16.9249L14.5835 16.8749C14.3871 16.6828 14.1376 16.5539 13.8673 16.5049C13.597 16.4559 13.3182 16.489 13.0668 16.5999C12.8204 16.7056 12.6101 16.881 12.4621 17.1045C12.314 17.3281 12.2346 17.5901 12.2335 17.8583V17.9999C12.2335 18.4419 12.0579 18.8659 11.7453 19.1784C11.4328 19.491 11.0089 19.6666 10.5668 19.6666C10.1248 19.6666 9.70088 19.491 9.38832 19.1784C9.07576 18.8659 8.90016 18.4419 8.90016 17.9999V17.9249C8.89371 17.6491 8.80443 17.3816 8.64392 17.1572C8.48342 16.9328 8.25911 16.7618 8.00016 16.6666C7.74882 16.5557 7.47 16.5226 7.19967 16.5716C6.92934 16.6206 6.6799 16.7495 6.4835 16.9416L6.4335 16.9916C6.27871 17.1465 6.09489 17.2695 5.89256 17.3534C5.69023 17.4372 5.47336 17.4804 5.25433 17.4804C5.0353 17.4804 4.81843 17.4372 4.6161 17.3534C4.41377 17.2695 4.22995 17.1465 4.07516 16.9916C3.9202 16.8368 3.79727 16.653 3.7134 16.4507C3.62952 16.2483 3.58635 16.0314 3.58635 15.8124C3.58635 15.5934 3.62952 15.3765 3.7134 15.1742C3.79727 14.9719 3.9202 14.788 4.07516 14.6333L4.12516 14.5833C4.31728 14.3869 4.44615 14.1374 4.49517 13.8671C4.54418 13.5967 4.51109 13.3179 4.40016 13.0666C4.29453 12.8201 4.11913 12.6099 3.89555 12.4618C3.67198 12.3138 3.40999 12.2343 3.14183 12.2333H3.00016C2.55814 12.2333 2.13421 12.0577 1.82165 11.7451C1.50909 11.4325 1.3335 11.0086 1.3335 10.5666C1.3335 10.1246 1.50909 9.70064 1.82165 9.38807C2.13421 9.07551 2.55814 8.89992 3.00016 8.89992H3.07516C3.35099 8.89347 3.6185 8.80418 3.84291 8.64368C4.06732 8.48317 4.23826 8.25886 4.3335 7.99992C4.44443 7.74857 4.47752 7.46976 4.4285 7.19943C4.37948 6.9291 4.25061 6.67965 4.0585 6.48325L4.0085 6.43325C3.85354 6.27846 3.7306 6.09465 3.64673 5.89232C3.56286 5.68999 3.51969 5.47311 3.51969 5.25409C3.51969 5.03506 3.56286 4.81818 3.64673 4.61585C3.7306 4.41352 3.85354 4.22971 4.0085 4.07492C4.16328 3.91996 4.3471 3.79703 4.54943 3.71315C4.75176 3.62928 4.96864 3.58611 5.18766 3.58611C5.40669 3.58611 5.62357 3.62928 5.8259 3.71315C6.02823 3.79703 6.21204 3.91996 6.36683 4.07492L6.41683 4.12492C6.61323 4.31703 6.86268 4.44591 7.13301 4.49492C7.40333 4.54394 7.68215 4.51085 7.9335 4.39992H8.00016C8.24664 4.29428 8.45684 4.11888 8.60491 3.89531C8.75297 3.67173 8.83243 3.40974 8.8335 3.14159V2.99992C8.8335 2.55789 9.00909 2.13397 9.32165 1.82141C9.63421 1.50885 10.0581 1.33325 10.5002 1.33325C10.9422 1.33325 11.3661 1.50885 11.6787 1.82141C11.9912 2.13397 12.1668 2.55789 12.1668 2.99992V3.07492C12.1679 3.34307 12.2474 3.60506 12.3954 3.82864C12.5435 4.05222 12.7537 4.22762 13.0002 4.33325C13.2515 4.44418 13.5303 4.47727 13.8007 4.42826C14.071 4.37924 14.3204 4.25037 14.5168 4.05825L14.5668 4.00825C14.7216 3.85329 14.9054 3.73036 15.1078 3.64649C15.3101 3.56261 15.527 3.51944 15.746 3.51944C15.965 3.51944 16.1819 3.56261 16.3842 3.64649C16.5866 3.73036 16.7704 3.85329 16.9252 4.00825C17.0801 4.16304 17.2031 4.34685 17.2869 4.54919C17.3708 4.75152 17.414 4.96839 17.414 5.18742C17.414 5.40644 17.3708 5.62332 17.2869 5.82565C17.2031 6.02798 17.0801 6.2118 16.9252 6.36659L16.8752 6.41659C16.683 6.61298 16.5542 6.86243 16.5052 7.13276C16.4561 7.40309 16.4892 7.68191 16.6002 7.93325V7.99992C16.7058 8.24639 16.8812 8.4566 17.1048 8.60466C17.3284 8.75273 17.5903 8.83218 17.8585 8.83325H18.0002C18.4422 8.83325 18.8661 9.00885 19.1787 9.32141C19.4912 9.63397 19.6668 10.0579 19.6668 10.4999C19.6668 10.9419 19.4912 11.3659 19.1787 11.6784C18.8661 11.991 18.4422 12.1666 18.0002 12.1666H17.9252C17.657 12.1677 17.395 12.2471 17.1714 12.3952C16.9479 12.5432 16.7725 12.7534 16.6668 12.9999Z" stroke="#727272" stroke-width="1.5" stroke-linecap="round" stroke-linejoin="round"/>
	</g>
	<defs>
		<clipPath id="clip0_4412_219">
			<rect width="20" height="20" fill="white" transform="translate(0.5 0.5)"/>
		</clipPath>
	</defs>
</svg>
