<svg width="24" height="26" viewBox="0 0 24 26" fill="none"
	xmlns="http://www.w3.org/2000/svg">
	<path d="M12 16C13.6569 16 15 14.6569 15 13C15 11.3431 13.6569 10 12 10C10.3431 10 9 11.3431 9 13C9 14.6569 10.3431 16 12 16Z" stroke="#727272" stroke-width="1.5" stroke-linecap="round" stroke-linejoin="round"/>
	<path d="M19.4 16C19.2669 16.3016 19.2272 16.6362 19.286 16.9606C19.3448 17.285 19.4995 17.5843 19.73 17.82L19.79 17.88C19.976 18.0657 20.1235 18.2863 20.2241 18.5291C20.3248 18.7719 20.3766 19.0322 20.3766 19.295C20.3766 19.5578 20.3248 19.8181 20.2241 20.0609C20.1235 20.3037 19.976 20.5243 19.79 20.71C19.6043 20.896 19.3837 21.0435 19.1409 21.1441C18.8981 21.2448 18.6378 21.2966 18.375 21.2966C18.1122 21.2966 17.8519 21.2448 17.6091 21.1441C17.3663 21.0435 17.1457 20.896 16.96 20.71L16.9 20.65C16.6643 20.4195 16.365 20.2648 16.0406 20.206C15.7162 20.1472 15.3816 20.1869 15.08 20.32C14.7842 20.4468 14.532 20.6572 14.3543 20.9255C14.1766 21.1938 14.0813 21.5082 14.08 21.83V22C14.08 22.5304 13.8693 23.0391 13.4942 23.4142C13.1191 23.7893 12.6104 24 12.08 24C11.5496 24 11.0409 23.7893 10.6658 23.4142C10.2907 23.0391 10.08 22.5304 10.08 22V21.91C10.0723 21.579 9.96512 21.258 9.77251 20.9887C9.5799 20.7194 9.31074 20.5143 9 20.4C8.69838 20.2669 8.36381 20.2272 8.03941 20.286C7.71502 20.3448 7.41568 20.4995 7.18 20.73L7.12 20.79C6.93425 20.976 6.71368 21.1235 6.47088 21.2241C6.22808 21.3248 5.96783 21.3766 5.705 21.3766C5.44217 21.3766 5.18192 21.3248 4.93912 21.2241C4.69632 21.1235 4.47575 20.976 4.29 20.79C4.10405 20.6043 3.95653 20.3837 3.85588 20.1409C3.75523 19.8981 3.70343 19.6378 3.70343 19.375C3.70343 19.1122 3.75523 18.8519 3.85588 18.6091C3.95653 18.3663 4.10405 18.1457 4.29 17.96L4.35 17.9C4.58054 17.6643 4.73519 17.365 4.794 17.0406C4.85282 16.7162 4.81311 16.3816 4.68 16.08C4.55324 15.7842 4.34276 15.532 4.07447 15.3543C3.80618 15.1766 3.49179 15.0813 3.17 15.08H3C2.46957 15.08 1.96086 14.8693 1.58579 14.4942C1.21071 14.1191 1 13.6104 1 13.08C1 12.5496 1.21071 12.0409 1.58579 11.6658C1.96086 11.2907 2.46957 11.08 3 11.08H3.09C3.42099 11.0723 3.742 10.9651 4.0113 10.7725C4.28059 10.5799 4.48572 10.3107 4.6 10C4.73311 9.69838 4.77282 9.36381 4.714 9.03941C4.65519 8.71502 4.50054 8.41568 4.27 8.18L4.21 8.12C4.02405 7.93425 3.87653 7.71368 3.77588 7.47088C3.67523 7.22808 3.62343 6.96783 3.62343 6.705C3.62343 6.44217 3.67523 6.18192 3.77588 5.93912C3.87653 5.69632 4.02405 5.47575 4.21 5.29C4.39575 5.10405 4.61632 4.95653 4.85912 4.85588C5.10192 4.75523 5.36217 4.70343 5.625 4.70343C5.88783 4.70343 6.14808 4.75523 6.39088 4.85588C6.63368 4.95653 6.85425 5.10405 7.04 5.29L7.1 5.35C7.33568 5.58054 7.63502 5.73519 7.95941 5.794C8.28381 5.85282 8.61838 5.81311 8.92 5.68H9C9.29577 5.55324 9.54802 5.34276 9.72569 5.07447C9.90337 4.80618 9.99872 4.49179 10 4.17V4C10 3.46957 10.2107 2.96086 10.5858 2.58579C10.9609 2.21071 11.4696 2 12 2C12.5304 2 13.0391 2.21071 13.4142 2.58579C13.7893 2.96086 14 3.46957 14 4V4.09C14.0013 4.41179 14.0966 4.72618 14.2743 4.99447C14.452 5.26276 14.7042 5.47324 15 5.6C15.3016 5.73311 15.6362 5.77282 15.9606 5.714C16.285 5.65519 16.5843 5.50054 16.82 5.27L16.88 5.21C17.0657 5.02405 17.2863 4.87653 17.5291 4.77588C17.7719 4.67523 18.0322 4.62343 18.295 4.62343C18.5578 4.62343 18.8181 4.67523 19.0609 4.77588C19.3037 4.87653 19.5243 5.02405 19.71 5.21C19.896 5.39575 20.0435 5.61632 20.1441 5.85912C20.2448 6.10192 20.2966 6.36217 20.2966 6.625C20.2966 6.88783 20.2448 7.14808 20.1441 7.39088C20.0435 7.63368 19.896 7.85425 19.71 8.04L19.65 8.1C19.4195 8.33568 19.2648 8.63502 19.206 8.95941C19.1472 9.28381 19.1869 9.61838 19.32 9.92V10C19.4468 10.2958 19.6572 10.548 19.9255 10.7257C20.1938 10.9034 20.5082 10.9987 20.83 11H21C21.5304 11 22.0391 11.2107 22.4142 11.5858C22.7893 11.9609 23 12.4696 23 13C23 13.5304 22.7893 14.0391 22.4142 14.4142C22.0391 14.7893 21.5304 15 21 15H20.91C20.5882 15.0013 20.2738 15.0966 20.0055 15.2743C19.7372 15.452 19.5268 15.7042 19.4 16Z" stroke="#727272" stroke-width="1.5" stroke-linecap="round" stroke-linejoin="round"/>
</svg>
