<svg width="24" height="25" viewBox="0 0 24 25" fill="none"
	xmlns="http://www.w3.org/2000/svg">
	<path d="M15.6965 14.4821C15.8234 14.8274 15.6717 15.201 15.3577 15.3164L14.5996 15.5951C14.2855 15.7105 13.9281 15.5241 13.8011 15.1788C13.6742 14.8335 13.8259 14.46 14.1399 14.3445L14.8981 14.0659C15.2121 13.9504 15.5696 14.1368 15.6965 14.4821Z" fill="black"/>
	<path d="M12.3251 16.4311C12.6392 16.3156 12.7909 15.9421 12.6639 15.5968C12.537 15.2515 12.1795 15.0651 11.8655 15.1805L11.1074 15.4592C10.7933 15.5746 10.6416 15.9481 10.7686 16.2935C10.8955 16.6388 11.253 16.8252 11.567 16.7097L12.3251 16.4311Z" fill="black"/>
	<path fill-rule="evenodd" clip-rule="evenodd" d="M19.9061 18.9369C20.364 18.7686 20.6026 18.2711 20.4389 17.8258L14.9807 2.97623C14.817 2.53092 14.3131 2.30638 13.8551 2.47471L11.0217 3.51616C11.3864 4.56506 10.8203 5.72578 9.74425 6.12131C8.66815 6.51685 7.48515 5.99902 7.08367 4.96367L4.25029 6.00513C3.79233 6.17346 3.55378 6.67091 3.71746 7.11623L9.17568 21.9658C9.33936 22.4111 9.8433 22.6357 10.3012 22.4673L13.1346 21.4259C13.1303 21.4148 13.1261 21.4036 13.122 21.3924C13.1195 21.3856 13.117 21.3787 13.1146 21.3719C13.113 21.3675 13.1115 21.3631 13.1099 21.3587C12.7453 20.3098 13.3113 19.1491 14.3874 18.7535C15.4635 18.358 16.6465 18.8758 17.048 19.9112C17.0523 19.9223 17.0565 19.9334 17.0607 19.9447C17.0648 19.9559 17.0688 19.9671 17.0727 19.9784L19.9061 18.9369ZM14.0627 3.4662L12.1598 4.16564C12.1536 5.41371 11.3601 6.59518 10.09 7.06201C8.81995 7.52884 7.45016 7.14254 6.63715 6.19559L4.73425 6.89503L8.26604 16.5036L8.97089 16.2445C9.28492 16.1291 9.64239 16.3154 9.76932 16.6608C9.89625 17.0061 9.74457 17.3796 9.43054 17.495L8.72569 17.7541L10.0937 21.4758L11.9724 20.7853C11.946 19.5095 12.7458 18.2891 14.0417 17.8128C15.3375 17.3365 16.7373 17.7484 17.5434 18.7376L19.4221 18.047L18.0541 14.3253L17.3493 14.5843C17.0353 14.6998 16.6778 14.5134 16.5509 14.1681C16.4239 13.8228 16.5756 13.4493 16.8896 13.3338L17.5945 13.0748L14.0627 3.4662Z" fill="black"/>
</svg>
